<mxfile host="app.diagrams.net" modified="2022-12-18T12:42:23.219Z" agent="5.0 (Macintosh)" etag="fAnzmhBFxP2HSMin-v7B" version="20.6.0" type="github">
  <diagram id="q0DILytYg0iy6yfAkVPH" name="Page-1">
    <mxGraphModel dx="970" dy="560" grid="1" gridSize="10" guides="1" tooltips="1" connect="1" arrows="1" fold="1" page="1" pageScale="1" pageWidth="827" pageHeight="1169" math="0" shadow="0">
      <root>
        <mxCell id="0" />
        <mxCell id="1" parent="0" />
        <mxCell id="Z-nDP4wHouM15RZJmkO2-1" value="&lt;div&gt;Manuscript&lt;/div&gt;&lt;div&gt;&lt;hr&gt;&lt;/div&gt;&lt;div align=&quot;left&quot;&gt;--&amp;gt; rating&lt;br&gt;--&amp;gt; title&lt;br&gt;--&amp;gt; country&lt;br&gt;--&amp;gt; date&lt;br&gt;&lt;/div&gt;" style="rounded=0;whiteSpace=wrap;html=1;fillColor=#f5f5f5;strokeColor=#666666;fontColor=#333333;" parent="1" vertex="1">
          <mxGeometry x="216" y="220" width="120" height="110" as="geometry" />
        </mxCell>
        <mxCell id="Z-nDP4wHouM15RZJmkO2-4" value="&lt;div&gt;Organisation&lt;br&gt;&lt;/div&gt;&lt;div&gt;&lt;hr&gt;&lt;/div&gt;&lt;div align=&quot;left&quot;&gt;--&amp;gt; name&lt;br&gt;--&amp;gt; definition&lt;br&gt;&lt;/div&gt;" style="rounded=0;whiteSpace=wrap;html=1;" parent="1" vertex="1">
          <mxGeometry x="276" y="40" width="120" height="80" as="geometry" />
        </mxCell>
        <mxCell id="Z-nDP4wHouM15RZJmkO2-10" value="&lt;div&gt;Miniature&lt;br&gt;&lt;/div&gt;&lt;div&gt;&lt;hr&gt;&lt;/div&gt;&lt;div align=&quot;left&quot;&gt;--&amp;gt; legend&lt;br&gt;--&amp;gt; description&lt;br&gt;--&amp;gt; feminine presence&lt;br&gt;&lt;/div&gt;" style="rounded=0;whiteSpace=wrap;html=1;" parent="1" vertex="1">
          <mxGeometry x="349.9999999999999" y="450" width="141.82" height="100" as="geometry" />
        </mxCell>
        <mxCell id="Z-nDP4wHouM15RZJmkO2-14" value="&lt;div align=&quot;center&quot;&gt;Text&lt;/div&gt;&lt;div align=&quot;center&quot;&gt;&lt;hr&gt;&lt;/div&gt;&lt;div align=&quot;left&quot;&gt;--&amp;gt; language&lt;br&gt;--&amp;gt; origine&lt;br&gt;--&amp;gt; date&lt;br&gt;--&amp;gt; theme(s)&lt;br&gt;&lt;/div&gt;" style="rounded=0;whiteSpace=wrap;html=1;align=center;" parent="1" vertex="1">
          <mxGeometry x="130" y="390" width="130" height="110" as="geometry" />
        </mxCell>
        <mxCell id="F8eL2Q75ojKpojj5MNbm-3" value="&lt;div&gt;Geographical place&lt;br&gt;&lt;/div&gt;&lt;div&gt;&lt;hr&gt;&lt;/div&gt;&lt;div align=&quot;left&quot;&gt;--&amp;gt; name&lt;br&gt;--&amp;gt; period&lt;br&gt;--&amp;gt; description&lt;br&gt;&lt;/div&gt;" style="rounded=0;whiteSpace=wrap;html=1;" parent="1" vertex="1">
          <mxGeometry x="100" y="70" width="116" height="98" as="geometry" />
        </mxCell>
        <mxCell id="4ma81mb0YaSDIXV27W-R-1" value="&lt;div&gt;Person&lt;br&gt;&lt;/div&gt;&lt;div&gt;&lt;hr&gt;&lt;/div&gt;&lt;div align=&quot;left&quot;&gt;--&amp;gt; name&lt;br&gt;&lt;/div&gt;&lt;div align=&quot;left&quot;&gt;--&amp;gt; gender&lt;br&gt;&lt;/div&gt;&lt;div align=&quot;left&quot;&gt;--&amp;gt; origin&lt;br&gt;--&amp;gt; birth date&lt;/div&gt;&lt;div align=&quot;left&quot;&gt;--&amp;gt; death date&lt;/div&gt;" style="rounded=0;whiteSpace=wrap;html=1;" vertex="1" parent="1">
          <mxGeometry x="430" y="200" width="120" height="110" as="geometry" />
        </mxCell>
        <mxCell id="4ma81mb0YaSDIXV27W-R-4" value="&lt;div&gt;Occupation&lt;br&gt;&lt;/div&gt;&lt;div&gt;&lt;hr&gt;&lt;/div&gt;&lt;div align=&quot;left&quot;&gt;--&amp;gt; name&lt;br&gt;&lt;/div&gt;&lt;div align=&quot;left&quot;&gt;--&amp;gt; definition&lt;br&gt;&lt;/div&gt;" style="rounded=0;whiteSpace=wrap;html=1;" vertex="1" parent="1">
          <mxGeometry x="640" y="215" width="120" height="80" as="geometry" />
        </mxCell>
        <mxCell id="4ma81mb0YaSDIXV27W-R-5" value="&lt;div&gt;Membership&lt;br&gt;&lt;/div&gt;&lt;div&gt;&lt;hr&gt;&lt;/div&gt;&lt;div align=&quot;left&quot;&gt;--&amp;gt; name&lt;br&gt;--&amp;gt; definition&lt;br&gt;&lt;/div&gt;" style="rounded=0;whiteSpace=wrap;html=1;" vertex="1" parent="1">
          <mxGeometry x="580" y="390" width="120" height="80" as="geometry" />
        </mxCell>
        <mxCell id="4ma81mb0YaSDIXV27W-R-6" value="&lt;div&gt;Group&lt;br&gt;&lt;/div&gt;&lt;div&gt;&lt;hr&gt;&lt;/div&gt;&lt;div align=&quot;left&quot;&gt;--&amp;gt; name&lt;br&gt;--&amp;gt; definition&lt;br&gt;&lt;/div&gt;" style="rounded=0;whiteSpace=wrap;html=1;" vertex="1" parent="1">
          <mxGeometry x="580" y="38" width="120" height="82" as="geometry" />
        </mxCell>
      </root>
    </mxGraphModel>
  </diagram>
</mxfile>
